<?xml version="1.0" encoding="UTF-8"?>
<svg width="160px" height="94px" viewBox="0 0 160 94" version="1.1"
  xmlns="http://www.w3.org/2000/svg"
  xmlns:xlink="http://www.w3.org/1999/xlink">
  <!-- Generator: Sketch 53.2 (72643) - https://sketchapp.com -->
  <title>Alte-Kanti-Logo-Gross</title>
  <desc>Created with Sketch.</desc>
  <g id="Symbols" stroke="none" stroke-width="1" fill="#000" fill-rule="evenodd">
    <g id="Header" transform="translate(-1222.000000, -72.000000)" fill-rule="nonzero">
      <path d="M1354.25964,165.999573 C1353.11952,166.015712 1352.02053,165.573446 1351.20862,164.771751 C1350.39672,163.970056 1349.93968,162.875869 1349.93979,161.73406 L1349.93979,127.549667 C1349.93159,126.371035 1348.97946,125.417588 1347.80245,125.409375 L1340.27658,125.409375 C1339.09615,125.409375 1338.13923,126.367616 1338.13923,127.549667 C1338.13923,128.731718 1339.09615,129.68996 1340.27658,129.68996 L1345.61994,129.68996 C1346.21016,129.68996 1346.68862,130.169081 1346.68862,130.760106 C1346.68862,131.351132 1346.21016,131.830253 1345.61994,131.830253 L1340.39699,131.830253 C1338.1386,131.69588 1336.37584,129.822694 1336.37584,127.557203 C1336.37584,125.291713 1338.1386,123.418527 1340.39699,123.284154 L1347.92286,123.284154 C1350.27784,123.28414 1352.18926,125.191453 1352.19755,127.549667 L1352.19755,161.73406 C1352.2907,162.842626 1353.21642,163.694902 1354.32738,163.694902 C1355.43833,163.694902 1356.36405,162.842626 1356.4572,161.73406 L1356.4572,133.955473 C1356.46549,131.597259 1358.37691,129.689945 1360.73189,129.68996 L1366.06021,129.68996 C1367.24063,129.68996 1368.19755,128.731718 1368.19755,127.549667 C1368.19755,126.367616 1367.24063,125.409375 1366.06021,125.409375 L1356.39699,125.409375 C1355.9877,125.458274 1355.58682,125.267106 1355.36676,124.918093 C1355.1467,124.56908 1355.1467,124.124448 1355.36676,123.775436 C1355.58682,123.426423 1355.9877,123.235255 1356.39699,123.284154 L1366,123.284154 C1368.25839,123.418527 1370.02115,125.291713 1370.02115,127.557203 C1370.02115,129.822694 1368.25839,131.69588 1366,131.830253 L1360.67168,131.830253 C1360.10621,131.826237 1359.56252,132.048369 1359.16125,132.447361 C1358.75999,132.846353 1358.53432,133.389208 1358.53434,133.955473 L1358.53434,161.73406 C1358.52604,164.092274 1356.61463,165.999588 1354.25964,165.999573 Z M1303.06867,114.738056 C1301.93096,114.74206 1300.83826,114.29332 1300.03095,113.490553 C1299.22364,112.687786 1298.76786,111.596752 1298.76388,110.457471 L1298.76388,76.2730774 C1298.76388,75.0993507 1297.81369,74.1478572 1296.64158,74.1478572 L1289.11571,74.1478572 C1288.31205,74.0801439 1287.53876,74.4711909 1287.11613,75.159029 C1286.6935,75.846867 1286.6935,76.7143602 1287.11613,77.4021983 C1287.53876,78.0900364 1288.31205,78.4810834 1289.11571,78.4133701 L1294.44403,78.4133701 C1295.03424,78.4133701 1295.5127,78.8924909 1295.5127,79.4835164 C1295.5127,80.0745419 1295.03424,80.5536628 1294.44403,80.5536628 L1289.20602,80.5536628 C1287.62103,80.647969 1286.11443,79.854783 1285.29349,78.4938187 C1284.47255,77.1328545 1284.47255,75.4283727 1285.29349,74.0674085 C1286.11443,72.7064443 1287.62103,71.9132583 1289.20602,72.0075645 L1296.73189,72.0075645 C1299.08443,72.0075645 1300.99153,73.9172997 1300.99153,76.2730774 L1300.99153,110.457471 C1300.99153,111.639522 1301.94846,112.597763 1303.12888,112.597763 C1304.3093,112.597763 1305.26623,111.639522 1305.26623,110.457471 L1305.26623,82.6939555 C1305.26621,80.3357271 1307.1709,78.4216737 1309.52587,78.4133701 L1314.85419,78.4133701 C1315.65784,78.4810834 1316.43113,78.0900364 1316.85376,77.4021983 C1317.2764,76.7143602 1317.2764,75.846867 1316.85376,75.159029 C1316.43113,74.4711909 1315.65784,74.0801439 1314.85419,74.1478572 L1305.20602,74.1478572 C1304.61581,74.1478572 1304.13735,73.6687363 1304.13735,73.0777108 C1304.13735,72.7938904 1304.24994,72.5216945 1304.45035,72.3210031 C1304.65077,72.1203117 1304.92259,72.0075645 1305.20602,72.0075645 L1314.79398,72.0075645 C1316.37897,71.9132583 1317.88557,72.7064443 1318.70651,74.0674085 C1319.52745,75.4283727 1319.52745,77.1328545 1318.70651,78.4938187 C1317.88557,79.854783 1316.37897,80.647969 1314.79398,80.5536628 L1309.46566,80.5536628 C1308.28865,80.5618765 1307.33652,81.5153235 1307.32832,82.6939555 L1307.32832,110.457471 C1307.32833,112.815699 1305.42364,114.729752 1303.06867,114.738056 Z M1328.44591,165.999573 C1328.02307,165.998154 1327.60253,165.937269 1327.19661,165.818704 C1326.11877,165.482267 1325.21606,164.735282 1324.68297,163.738701 L1304.93509,126.554883 C1304.67267,126.054151 1304.22179,125.678796 1303.68222,125.511895 C1303.14266,125.344995 1302.55892,125.400313 1302.06021,125.665607 C1301.36133,126.032445 1300.92568,126.759531 1300.93133,127.549667 L1300.93133,161.73406 C1301.02447,162.842626 1301.9502,163.694902 1303.06115,163.694902 C1304.1721,163.694902 1305.09782,162.842626 1305.19097,161.73406 L1305.19097,140.361278 C1305.17457,139.861559 1305.5059,139.417068 1305.98899,139.290713 C1306.47209,139.164358 1306.97817,139.389819 1307.2079,139.833741 L1319.24929,162.698699 C1319.61563,163.39854 1320.34171,163.834792 1321.13076,163.829136 C1321.72097,163.829136 1322.19944,164.308257 1322.19944,164.899282 C1322.19944,165.490308 1321.72097,165.969428 1321.13076,165.969428 C1319.55281,165.96614 1318.10313,165.098598 1317.35278,163.708556 L1307.32832,144.656936 L1307.32832,161.73406 C1307.19413,163.995563 1305.32352,165.760752 1303.06115,165.760752 C1300.79877,165.760752 1298.92817,163.995563 1298.79398,161.73406 L1298.79398,127.549667 C1298.79185,126.195472 1299.432,124.920719 1300.51883,124.114877 C1301.60567,123.309035 1303.01005,123.067855 1304.30292,123.465024 C1305.38638,123.791006 1306.29267,124.540948 1306.81656,125.545027 L1326.56444,162.728844 C1326.83013,163.230801 1327.28546,163.605337 1327.82879,163.768846 C1328.36972,163.931077 1328.95239,163.877052 1329.45437,163.618121 C1330.15081,163.241143 1330.58438,162.511752 1330.58325,161.718988 L1330.58325,127.549667 C1330.58325,126.367616 1329.62633,125.409375 1328.44591,125.409375 C1327.26548,125.409375 1326.30856,126.367616 1326.30856,127.549667 L1326.30856,153.17289 C1326.35739,153.582742 1326.16649,153.98418 1325.81796,154.204543 C1325.46942,154.424906 1325.0254,154.424906 1324.67687,154.204543 C1324.32834,153.98418 1324.13743,153.582742 1324.18627,153.17289 L1324.18627,127.549667 C1324.32045,125.288165 1326.19106,123.522976 1328.45343,123.522976 C1330.71581,123.522976 1332.58641,125.288165 1332.7206,127.549667 L1332.7206,161.73406 C1332.69567,163.296639 1331.82526,164.722384 1330.44779,165.456964 C1329.83557,165.800808 1329.14774,165.987243 1328.44591,165.999573 Z M1289.20602,114.738056 L1276.39699,114.738056 C1274.04202,114.729752 1272.13733,112.815699 1272.13735,110.457471 L1272.13735,76.2730774 C1272.13735,75.0910264 1271.18042,74.1327847 1270,74.1327847 C1268.81958,74.1327847 1267.86265,75.0910264 1267.86265,76.2730774 L1267.86265,105.167029 C1267.86265,105.450849 1267.97524,105.723045 1268.17566,105.923737 C1268.37608,106.124428 1268.6479,106.237175 1268.93133,106.237175 C1269.34061,106.188276 1269.7415,106.379444 1269.96156,106.728457 C1270.18162,107.077469 1270.18162,107.522101 1269.96156,107.871114 C1269.7415,108.220127 1269.34061,108.411294 1268.93133,108.362395 C1268.08503,108.362395 1267.27339,108.025742 1266.67497,107.426494 C1266.07655,106.827247 1265.74036,106.014493 1265.74036,105.167029 L1265.74036,76.2730774 C1265.74036,73.9172997 1267.64746,72.0075645 1270,72.0075645 C1272.35254,72.0075645 1274.25964,73.9172997 1274.25964,76.2730774 L1274.25964,110.457471 C1274.26784,111.636103 1275.21998,112.58955 1276.39699,112.597763 L1289.20602,112.597763 C1290.38644,112.597763 1291.34337,111.639522 1291.34337,110.457471 C1291.34337,109.27542 1290.38644,108.317178 1289.20602,108.317178 L1277.46566,108.317178 C1277.05638,108.366077 1276.65549,108.174909 1276.43543,107.825896 C1276.21537,107.476884 1276.21537,107.032252 1276.43543,106.683239 C1276.65549,106.334226 1277.05638,106.143059 1277.46566,106.191958 L1289.20602,106.191958 C1291.46441,106.326331 1293.22717,108.199516 1293.22717,110.465007 C1293.22717,112.730498 1291.46441,114.603683 1289.20602,114.738056 Z M1249.74036,165.999573 L1249.36406,165.999573 C1248.23255,165.909397 1247.1852,165.365981 1246.45908,164.492325 L1228.65287,143.194905 C1228.48805,143.001563 1228.39734,142.75578 1228.39699,142.501571 L1228.39699,127.549667 C1228.46461,126.744903 1228.0741,125.970547 1227.38721,125.547333 C1226.70032,125.12412 1225.83402,125.12412 1225.14713,125.547333 C1224.46024,125.970547 1224.06973,126.744903 1224.13735,127.549667 L1224.13735,161.73406 C1224.23049,162.842626 1225.15622,163.694902 1226.26717,163.694902 C1227.37812,163.694902 1228.30384,162.842626 1228.39699,161.73406 L1228.39699,151.047669 C1228.39699,150.456644 1228.87545,149.977523 1229.46566,149.977523 C1230.05588,149.977523 1230.53434,150.456644 1230.53434,151.047669 L1230.53434,161.73406 C1230.40015,163.995563 1228.52954,165.760752 1226.26717,165.760752 C1224.0048,165.760752 1222.13419,163.995563 1222,161.73406 L1222,127.549667 C1222.13419,125.288165 1224.0048,123.522976 1226.26717,123.522976 C1228.52954,123.522976 1230.40015,125.288165 1230.53434,127.549667 L1230.53434,142.109687 L1248.09972,163.105656 C1248.4728,163.55825 1249.01946,163.831956 1249.60489,163.859281 C1250.46138,163.92928 1251.27645,163.478814 1251.67384,162.715828 C1252.07123,161.952842 1251.97365,161.025728 1251.42615,160.362464 L1238.8429,145.289981 C1238.51185,144.892873 1238.51185,144.315492 1238.8429,143.918385 L1251.42615,128.845901 C1251.77731,128.425862 1251.95021,127.884804 1251.90781,127.338652 C1251.86587,126.77263 1251.59799,126.24739 1251.16466,125.88153 C1250.73133,125.515671 1250.16909,125.340042 1249.60489,125.394302 C1249.01946,125.421626 1248.4728,125.695332 1248.09972,126.147926 L1235.62183,141.069685 C1235.21928,141.375449 1234.65789,141.357129 1234.27608,141.025768 C1233.89426,140.694407 1233.79636,140.140559 1234.04139,139.698089 L1246.45908,124.761258 C1247.1852,123.887602 1248.23255,123.344185 1249.36406,123.254009 C1250.48743,123.146945 1251.60616,123.500428 1252.46472,124.233721 C1253.34338,124.956457 1253.89442,126.003029 1253.99354,127.137342 C1254.09265,128.271654 1253.73149,129.398154 1252.99153,130.262714 L1240.95014,144.611719 L1252.99153,158.960723 C1254.05687,160.231001 1254.29015,162.00455 1253.58963,163.507741 C1252.8891,165.010932 1251.38184,165.971105 1249.72531,165.969428 L1249.74036,165.999573 Z M1377.72531,165.999573 C1375.37277,165.999573 1373.46566,164.089838 1373.46566,161.73406 L1373.46566,137.165912 C1373.46566,136.574886 1373.94412,136.095766 1374.53434,136.095766 C1375.12455,136.095766 1375.60301,136.574886 1375.60301,137.165912 L1375.60301,161.73406 C1375.69616,162.842626 1376.62188,163.694902 1377.73283,163.694902 C1378.84378,163.694902 1379.76951,162.842626 1379.86265,161.73406 L1379.86265,127.549667 C1379.93027,126.744903 1379.53976,125.970547 1378.85287,125.547333 C1378.16598,125.12412 1377.29968,125.12412 1376.61279,125.547333 C1375.9259,125.970547 1375.53539,126.744903 1375.60301,127.549667 L1375.60301,131.81518 C1375.60301,132.406206 1375.12455,132.885326 1374.53434,132.885326 C1373.94412,132.885326 1373.46566,132.406206 1373.46566,131.81518 L1373.46566,127.549667 C1373.59985,125.288165 1375.47046,123.522976 1377.73283,123.522976 C1379.9952,123.522976 1381.86581,125.288165 1382,127.549667 L1382,161.73406 C1381.99171,164.092274 1380.08029,165.999588 1377.72531,165.999573 Z M1345.72531,114.738056 L1332.93133,114.738056 C1330.57636,114.729752 1328.67167,112.815699 1328.67168,110.457471 L1328.67168,96.575713 C1328.66765,96.2932877 1328.77688,96.0210371 1328.97491,95.8199004 C1329.17294,95.6187638 1329.44324,95.5055379 1329.72531,95.5055667 L1340.39699,95.5055667 C1341.20065,95.57328 1341.97394,95.182233 1342.39657,94.4943949 C1342.8192,93.8065568 1342.8192,92.9390636 1342.39657,92.2512256 C1341.97394,91.5633875 1341.20065,91.1723405 1340.39699,91.2400538 L1329.72531,91.2400538 C1329.44324,91.2400826 1329.17294,91.1268567 1328.97491,90.92572 C1328.77688,90.7245834 1328.66765,90.4523328 1328.67168,90.1699074 L1328.67168,79.5438064 C1328.66765,79.261381 1328.77688,78.9891304 1328.97491,78.7879938 C1329.17294,78.5868571 1329.44324,78.4736312 1329.72531,78.47366 L1345.72531,78.47366 C1346.52896,78.5413733 1347.30225,78.1503263 1347.72488,77.4624882 C1348.14751,76.7746502 1348.14751,75.907157 1347.72488,75.2193189 C1347.30225,74.5314808 1346.52896,74.1404338 1345.72531,74.2081471 L1326.53434,74.2081471 C1325.36523,74.1826913 1324.39273,75.1027957 1324.35183,76.2730774 L1324.35183,105.167029 C1324.35183,105.450849 1324.46443,105.723045 1324.66484,105.923737 C1324.86526,106.124428 1325.13708,106.237175 1325.42051,106.237175 C1325.8298,106.188276 1326.23068,106.379444 1326.45074,106.728457 C1326.6708,107.077469 1326.6708,107.522101 1326.45074,107.871114 C1326.23068,108.220127 1325.8298,108.411294 1325.42051,108.362395 C1323.67338,108.33777 1322.26767,106.916724 1322.25964,105.167029 L1322.25964,76.2730774 C1322.26793,73.9148637 1324.17935,72.0075499 1326.53434,72.0075645 L1345.72531,72.0075645 C1347.3103,71.9132583 1348.8169,72.7064443 1349.63784,74.0674085 C1350.45878,75.4283727 1350.45878,77.1328545 1349.63784,78.4938187 C1348.8169,79.854783 1347.3103,80.647969 1345.72531,80.5536628 L1330.79398,80.5536628 L1330.79398,89.0997611 L1340.39699,89.0997611 C1341.98198,89.0054549 1343.48859,89.7986409 1344.30952,91.1596051 C1345.13046,92.5205693 1345.13046,94.2250511 1344.30952,95.5860153 C1343.48859,96.9469796 1341.98198,97.7401656 1340.39699,97.6458594 L1330.79398,97.6458594 L1330.79398,110.457471 C1330.80218,111.636103 1331.75432,112.58955 1332.93133,112.597763 L1345.72531,112.597763 C1346.90573,112.597763 1347.86265,111.639522 1347.86265,110.457471 C1347.86265,109.27542 1346.90573,108.317178 1345.72531,108.317178 L1334,108.317178 C1333.59071,108.366077 1333.18983,108.174909 1332.96977,107.825896 C1332.74971,107.476884 1332.74971,107.032252 1332.96977,106.683239 C1333.18983,106.334226 1333.59071,106.143059 1334,106.191958 L1345.72531,106.191958 C1347.3103,106.097652 1348.8169,106.890838 1349.63784,108.251802 C1350.45878,109.612766 1350.45878,111.317248 1349.63784,112.678212 C1348.8169,114.039176 1347.3103,114.832362 1345.72531,114.738056 Z M1226.27469,114.738056 C1225.79831,114.73212 1225.32586,114.650727 1224.87488,114.496896 C1223.80751,114.12467 1222.93079,113.344291 1222.4365,112.326459 C1221.93823,111.311347 1221.86773,110.138429 1222.24083,109.070802 L1234.04139,74.8864089 C1234.64219,73.170761 1236.25969,72.0223162 1238.07526,72.0223162 C1239.89083,72.0223162 1241.50833,73.170761 1242.10913,74.8864089 L1249.43932,96.2290459 C1249.54395,96.5552512 1249.48859,96.9117743 1249.29001,97.1907735 C1249.09142,97.4697726 1248.77292,97.638478 1248.43086,97.6458594 L1234.37253,97.6458594 C1234.02608,97.6435372 1233.70162,97.4754824 1233.49953,97.1936849 C1233.30653,96.9052716 1233.25659,96.5440481 1233.36406,96.2139734 L1237.87959,83.4023622 C1238.13321,82.9616468 1238.66158,82.7605995 1239.14346,82.9214504 C1239.62535,83.0823013 1239.92759,83.560598 1239.86642,84.0655515 L1235.8777,95.5055667 L1246.85042,95.5055667 L1240.06209,75.5797431 C1239.76169,74.7219192 1238.95294,74.1476968 1238.04516,74.1476968 C1237.13737,74.1476968 1236.32862,74.7219192 1236.02822,75.5797431 L1224.25776,109.764136 C1224.06887,110.296949 1224.1014,110.883383 1224.34807,111.391965 C1224.5945,111.904515 1225.03584,112.296741 1225.57333,112.480874 C1226.11082,112.665007 1226.6996,112.625674 1227.2079,112.371676 C1227.70829,112.136119 1228.09711,111.71431 1228.29163,111.196022 L1231.30198,102.680069 C1231.44964,102.248214 1231.8546,101.957692 1232.31044,101.95659 L1250.59831,101.95659 C1251.05415,101.957692 1251.45911,102.248214 1251.60677,102.680069 L1254.61712,111.196022 C1255.05319,112.233833 1256.21767,112.755862 1257.28114,112.390287 C1258.34462,112.024711 1258.94339,110.896551 1258.65099,109.809354 L1246.83537,75.5797431 C1246.56937,74.6863299 1245.74943,74.0735876 1244.81844,74.0724948 C1244.53637,74.0725236 1244.26607,73.9592977 1244.06804,73.758161 C1243.87001,73.5570243 1243.76079,73.2847737 1243.76482,73.0023484 C1243.80439,72.4409405 1244.27146,72.0061673 1244.83349,72.0075645 C1246.64884,72.011603 1248.26216,73.1672938 1248.8523,74.8864089 L1260.59266,109.070802 C1260.96139,110.142075 1260.88931,111.316241 1260.39232,112.334219 C1259.89532,113.352197 1259.01427,114.13032 1257.94356,114.496896 C1256.8774,114.870507 1255.70609,114.799915 1254.69238,114.300954 C1253.67193,113.80382 1252.89176,112.919494 1252.52493,111.844139 L1249.83067,104.051665 L1233.00282,104.051665 L1230.30856,111.844139 C1229.71407,113.568699 1228.09658,114.729091 1226.27469,114.738056 Z M1260.18627,165.999573 C1259.71555,165.999212 1259.24796,165.922871 1258.80151,165.773486 C1257.72723,165.407078 1256.84337,164.626535 1256.34604,163.605023 C1255.8487,162.58351 1255.779,161.405494 1256.1524,160.332319 L1267.89276,126.162999 C1268.48572,124.443488 1270.10245,123.289775 1271.9191,123.289775 C1273.73574,123.289775 1275.35247,124.443488 1275.94544,126.162999 L1283.27563,147.490563 C1283.39035,147.819955 1283.33995,148.184489 1283.14017,148.470275 C1282.91438,148.750726 1282.5658,148.902737 1282.20696,148.877232 L1268.29915,148.877232 C1267.95147,148.879982 1267.62482,148.710791 1267.42615,148.425057 C1267.22411,148.145876 1267.17337,147.784572 1267.29069,147.460418 L1271.80621,134.648807 C1272.00504,134.090035 1272.61508,133.794668 1273.17592,133.985618 C1273.72592,134.184345 1274.01432,134.788804 1273.82314,135.342141 L1269.84948,146.752012 L1280.8222,146.752012 L1273.9285,126.856333 C1273.63602,125.994581 1272.82801,125.415003 1271.9191,125.415003 C1271.01018,125.415003 1270.20218,125.994581 1269.90969,126.856333 L1258.12418,161.025654 C1257.93915,161.565451 1257.97708,162.15689 1258.22954,162.668554 C1258.59633,163.468999 1259.41532,163.962744 1260.29338,163.912786 C1261.17144,163.862827 1261.92931,163.279364 1262.2032,162.442467 L1265.21355,153.911441 C1265.36631,153.485534 1265.77009,153.201892 1266.22201,153.203035 L1284.50988,153.203035 C1284.9618,153.201892 1285.36558,153.485534 1285.51834,153.911441 L1288.52869,162.442467 C1288.91326,163.555996 1290.12427,164.148859 1291.23801,163.768846 C1292.352,163.377168 1292.94297,162.15997 1292.56256,161.040726 L1280.70179,126.856333 C1280.42339,125.971668 1279.611,125.364575 1278.68485,125.349085 C1278.09464,125.349085 1277.61618,124.869964 1277.61618,124.278938 C1277.61615,123.996484 1277.72922,123.725812 1277.93008,123.527508 C1278.13094,123.329205 1278.40282,123.219829 1278.68485,123.223864 C1280.50427,123.226054 1282.12293,124.381239 1282.71872,126.102709 L1294.45908,160.272029 C1295.03184,161.909505 1294.55707,163.731229 1293.25826,164.879592 C1291.95945,166.027956 1290.09544,166.274113 1288.54374,165.502181 C1287.52787,165.010826 1286.75215,164.130828 1286.39135,163.060439 L1283.71214,155.313182 L1266.91439,155.313182 L1264.22013,163.120729 C1263.85884,164.195663 1263.07637,165.07715 1262.05268,165.562471 C1261.47445,165.855662 1260.83437,166.005563 1260.18627,165.999573 Z" id="Alte-Kanti-Logo-Gross"></path>
    </g>
  </g>
</svg>
